<?xml version="1.0" encoding="utf-8"?>
<!-- Generator: Adobe Illustrator 27.0.0, SVG Export Plug-In . SVG Version: 6.00 Build 0)  -->
<svg version="1.1" id="Layer_2_00000093164357917374114820000016166284188535037572_"
	 xmlns="http://www.w3.org/2000/svg" xmlns:xlink="http://www.w3.org/1999/xlink" x="0px" y="0px" viewBox="0 0 349 73"
	 style="enable-background:new 0 0 349 73;" xml:space="preserve">
<style type="text/css">
	.st0{fill:#FFFFFF;}
</style>
<g id="Layer_1-2">
	<g>
		<path class="st0" d="M22,73C4.8,73,0,61.4,0,49.1v-3.3h11.3v3.3c0,8,1.4,13.7,10.4,13.7s10.5-5.7,10.5-13.7V0H44v49.1
			C44,61.4,39.2,73,22,73z"/>
		<path class="st0" d="M102.2,29.5v10.2H67.3v21.7h40.8v10.1H55.4V0h51.7v10.1H67.3v19.4C67.3,29.5,102.2,29.5,102.2,29.5z"/>
		<path class="st0" d="M117.8,0h13.3l32.2,53.7h0.2V0h11.9v71.5h-13.2L129.9,18h-0.2v53.5h-11.9C117.8,71.5,117.8,0,117.8,0z"/>
		<path class="st0" d="M199.5,0v35.3L231.9,0h14.2l-27.8,30.3l29.5,41.2h-13.9l-23.4-32.9l-11,11.8v21.1h-11.9V0H199.5z"/>
		<path class="st0" d="M265.8,0v71.5h-11.9V0H265.8z"/>
		<path class="st0" d="M278.1,0h15.4l20,55h0.2l19.9-55H349v71.5h-11.6V17.3h-0.2l-18.9,54.2h-9.5l-18.9-54.2h-0.2v54.2h-11.6
			L278.1,0L278.1,0z"/>
	</g>
</g>
</svg>
