{
  "accessors": [
    {
      "bufferView": 0,
      "componentType": 5125,
      "count": 4326,
      "type": "SCALAR"
    },
    {
      "bufferView": 1,
      "componentType": 5126,
      "count": 1215,
      "max": [
        0.00931221587501295,
        0.011232246456822303,
        0.004999999873689376
      ],
      "min": [
        -0.009312215875012936,
        -0.01123224645682229,
        -0.004999999873689376
      ],
      "type": "VEC3"
    },
    {
      "bufferView": 2,
      "componentType": 5126,
      "count": 1215,
      "max": [
        0.9999999998129008,
        0.9999775649058192,
        1.0
      ],
      "min": [
        -0.9987383424661362,
        -0.9999473613711987,
        -1.0
      ],
      "type": "VEC3"
    },
    {
      "bufferView": 3,
      "componentType": 5126,
      "count": 1215,
      "max": [
        1.0,
        0.9811218846854979
      ],
      "min": [
        0.0,
        0.0
      ],
      "type": "VEC2"
    }
  ],
  "asset": {
    "generator": "Adobe Illustrator",
    "version": "2.0"
  },
  "bufferViews": [
    {
      "buffer": 0,
      "byteLength": 17304,
      "target": 34963
    },
    {
      "buffer": 0,
      "byteLength": 14580,
      "byteOffset": 17304,
      "target": 34962
    },
    {
      "buffer": 0,
      "byteLength": 14580,
      "byteOffset": 31884,
      "target": 34962
    },
    {
      "buffer": 0,
      "byteLength": 9720,
      "byteOffset": 46464,
      "target": 34962
    }
  ],
  "buffers": [
    {
      "byteLength": 56184,
      "uri": "data:application/octet-stream;base64,"
    }
  ],
  "materials": [
    {
      "doubleSided": true,
      "pbrMetallicRoughness": {
        "baseColorFactor": [
          0.9999999403953552,
          0.9999999403953552,
          0.9999999403953552,
          1.0
        ],
        "metallicFactor": 0.0,
        "roughnessFactor": 0.4000000059604645
      }
    }
  ],
  "meshes": [
    {
      "primitives": [
        {
          "attributes": {
            "NORMAL": 2,
            "POSITION": 1,
            "TEXCOORD_0": 3
          },
          "indices": 0,
          "material": 0,
          "mode": 4
        }
      ]
    }
  ],
  "nodes": [
    {
      "mesh": 0
    }
  ],
  "scenes": [
    {
      "nodes": [
        0
      ]
    }
  ]
}
