{
  "accessors": [
    {
      "bufferView": 0,
      "componentType": 5125,
      "count": 4326,
      "type": "SCALAR"
    },
    {
      "bufferView": 1,
      "componentType": 5126,
      "count": 1215,
      "max": [
        0.009312206797947878,
        0.011232226283980518,
        0.007999999797903001
      ],
      "min": [
        -0.009312206797947864,
        -0.011232226283980504,
        -0.007999999797903001
      ],
      "type": "VEC3"
    },
    {
      "bufferView": 2,
      "componentType": 5126,
      "count": 1215,
      "max": [
        0.9999999999853028,
        0.9999775845310553,
        1.0
      ],
      "min": [
        -0.9987385509271403,
        -0.9999473293376513,
        -1.0
      ],
      "type": "VEC3"
    },
    {
      "bufferView": 3,
      "componentType": 5126,
      "count": 1215,
      "max": [
        0.9312367072789134,
        1.0
      ],
      "min": [
        0.0,
        0.0
      ],
      "type": "VEC2"
    }
  ],
  "asset": {
    "generator": "Adobe Illustrator",
    "version": "2.0"
  },
  "bufferViews": [
    {
      "buffer": 0,
      "byteLength": 17304,
      "target": 34963
    },
    {
      "buffer": 0,
      "byteLength": 14580,
      "byteOffset": 17304,
      "target": 34962
    },
    {
      "buffer": 0,
      "byteLength": 14580,
      "byteOffset": 31884,
      "target": 34962
    },
    {
      "buffer": 0,
      "byteLength": 9720,
      "byteOffset": 46464,
      "target": 34962
    }
  ],
  "buffers": [
    {
      "byteLength": 56184,
      "uri": "data:application/octet-stream;base64,"
    }
  ],
  "materials": [
    {
      "doubleSided": true,
      "pbrMetallicRoughness": {
        "baseColorFactor": [
          0.4296875,
          0.3125,
          0.9999999403953552,
          1.0
        ],
        "metallicFactor": 0.0,
        "roughnessFactor": 0.4000000059604645
      }
    }
  ],
  "meshes": [
    {
      "primitives": [
        {
          "attributes": {
            "NORMAL": 2,
            "POSITION": 1,
            "TEXCOORD_0": 3
          },
          "indices": 0,
          "material": 0,
          "mode": 4
        }
      ]
    }
  ],
  "nodes": [
    {
      "mesh": 0
    }
  ],
  "scenes": [
    {
      "nodes": [
        0
      ]
    }
  ]
}
