{
  "accessors": [
    {
      "bufferView": 0,
      "componentType": 5125,
      "count": 1212,
      "type": "SCALAR"
    },
    {
      "bufferView": 1,
      "componentType": 5126,
      "count": 346,
      "max": [
        0.003199999919143909,
        0.011232226283980504,
        0.007999999797903001
      ],
      "min": [
        -0.003199999919143909,
        -0.01123222628398049,
        -0.007999999797903001
      ],
      "type": "VEC3"
    },
    {
      "bufferView": 2,
      "componentType": 5126,
      "count": 346,
      "max": [
        0.9996818720239529,
        0.9996818113877665,
        1.0
      ],
      "min": [
        -0.9996817909308578,
        -0.9996818113877665,
        -1.0
      ],
      "type": "VEC3"
    },
    {
      "bufferView": 3,
      "componentType": 5126,
      "count": 346,
      "max": [
        1.0,
        0.7636350158024419
      ],
      "min": [
        0.0,
        0.0
      ],
      "type": "VEC2"
    }
  ],
  "asset": {
    "generator": "Adobe Illustrator",
    "version": "2.0"
  },
  "bufferViews": [
    {
      "buffer": 0,
      "byteLength": 4848,
      "target": 34963
    },
    {
      "buffer": 0,
      "byteLength": 4152,
      "byteOffset": 4848,
      "target": 34962
    },
    {
      "buffer": 0,
      "byteLength": 4152,
      "byteOffset": 9000,
      "target": 34962
    },
    {
      "buffer": 0,
      "byteLength": 2768,
      "byteOffset": 13152,
      "target": 34962
    }
  ],
  "buffers": [
    {
      "byteLength": 15920,
      "uri": "data:application/octet-stream;base64,"
    }
  ],
  "materials": [
    {
      "doubleSided": true,
      "pbrMetallicRoughness": {
        "baseColorFactor": [
          0.4296875,
          0.3125,
          0.9999999403953552,
          1.0
        ],
        "metallicFactor": 0.0,
        "roughnessFactor": 0.4000000059604645
      }
    }
  ],
  "meshes": [
    {
      "primitives": [
        {
          "attributes": {
            "NORMAL": 2,
            "POSITION": 1,
            "TEXCOORD_0": 3
          },
          "indices": 0,
          "material": 0,
          "mode": 4
        }
      ]
    }
  ],
  "nodes": [
    {
      "mesh": 0
    }
  ],
  "scenes": [
    {
      "nodes": [
        0
      ]
    }
  ]
}
