{
  "accessors": [
    {
      "bufferView": 0,
      "componentType": 5125,
      "count": 3624,
      "type": "SCALAR"
    },
    {
      "bufferView": 1,
      "componentType": 5126,
      "count": 1018,
      "max": [
        0.008169785773207747,
        0.011456249610217087,
        0.00799999979790307
      ],
      "min": [
        -0.008169785773207733,
        -0.011456249610217073,
        -0.00799999979790307
      ],
      "type": "VEC3"
    },
    {
      "bufferView": 2,
      "componentType": 5126,
      "count": 1018,
      "max": [
        0.9999779758903298,
        0.9999887149011877,
        1.0
      ],
      "min": [
        -0.999990337843444,
        -0.9999978170853384,
        -1.0
      ],
      "type": "VEC3"
    },
    {
      "bufferView": 3,
      "componentType": 5126,
      "count": 1018,
      "max": [
        1.0,
        0.9263782344037128
      ],
      "min": [
        0.0,
        0.0
      ],
      "type": "VEC2"
    }
  ],
  "asset": {
    "generator": "Adobe Illustrator",
    "version": "2.0"
  },
  "bufferViews": [
    {
      "buffer": 0,
      "byteLength": 14496,
      "target": 34963
    },
    {
      "buffer": 0,
      "byteLength": 12216,
      "byteOffset": 14496,
      "target": 34962
    },
    {
      "buffer": 0,
      "byteLength": 12216,
      "byteOffset": 26712,
      "target": 34962
    },
    {
      "buffer": 0,
      "byteLength": 8144,
      "byteOffset": 38928,
      "target": 34962
    }
  ],
  "buffers": [
    {
      "byteLength": 47072,
      "uri": "data:application/octet-stream;base64,"
    }
  ],
  "materials": [
    {
      "doubleSided": true,
      "pbrMetallicRoughness": {
        "baseColorFactor": [
          0.4296875,
          0.3125,
          0.9999999403953552,
          1.0
        ],
        "metallicFactor": 0.0,
        "roughnessFactor": 0.4000000059604645
      }
    }
  ],
  "meshes": [
    {
      "primitives": [
        {
          "attributes": {
            "NORMAL": 2,
            "POSITION": 1,
            "TEXCOORD_0": 3
          },
          "indices": 0,
          "material": 0,
          "mode": 4
        }
      ]
    }
  ],
  "nodes": [
    {
      "mesh": 0
    }
  ],
  "scenes": [
    {
      "nodes": [
        0
      ]
    }
  ]
}
