{
  "accessors": [
    {
      "bufferView": 0,
      "componentType": 5125,
      "count": 5244,
      "type": "SCALAR"
    },
    {
      "bufferView": 1,
      "componentType": 5126,
      "count": 1470,
      "max": [
        0.011023151716090251,
        0.01123223608337226,
        0.0049999998736894955
      ],
      "min": [
        -0.011023151716090251,
        -0.01123223608337226,
        -0.0049999998736894955
      ],
      "type": "VEC3"
    },
    {
      "bufferView": 2,
      "componentType": 5126,
      "count": 1470,
      "max": [
        0.9999993685644435,
        0.9999789861881623,
        1.0
      ],
      "min": [
        -0.9996818275199987,
        -0.9999999440917389,
        -1.0
      ],
      "type": "VEC3"
    },
    {
      "bufferView": 3,
      "componentType": 5126,
      "count": 1470,
      "max": [
        1.0,
        0.9206206025933708
      ],
      "min": [
        0.0,
        0.0
      ],
      "type": "VEC2"
    }
  ],
  "asset": {
    "generator": "Adobe Illustrator",
    "version": "2.0"
  },
  "bufferViews": [
    {
      "buffer": 0,
      "byteLength": 20976,
      "target": 34963
    },
    {
      "buffer": 0,
      "byteLength": 17640,
      "byteOffset": 20976,
      "target": 34962
    },
    {
      "buffer": 0,
      "byteLength": 17640,
      "byteOffset": 38616,
      "target": 34962
    },
    {
      "buffer": 0,
      "byteLength": 11760,
      "byteOffset": 56256,
      "target": 34962
    }
  ],
  "buffers": [
    {
      "byteLength": 68016,
      "uri": "data:application/octet-stream;base64,"
    }
  ],
  "materials": [
    {
      "doubleSided": true,
      "pbrMetallicRoughness": {
        "baseColorFactor": [
          0.9999999403953552,
          0.9999999403953552,
          0.9999999403953552,
          1.0
        ],
        "metallicFactor": 0.0,
        "roughnessFactor": 0.4000000059604645
      }
    }
  ],
  "meshes": [
    {
      "primitives": [
        {
          "attributes": {
            "NORMAL": 2,
            "POSITION": 1,
            "TEXCOORD_0": 3
          },
          "indices": 0,
          "material": 0,
          "mode": 4
        }
      ]
    }
  ],
  "nodes": [
    {
      "mesh": 0
    }
  ],
  "scenes": [
    {
      "nodes": [
        0
      ]
    }
  ]
}
