{
  "accessors": [
    {
      "bufferView": 0,
      "componentType": 5125,
      "count": 3318,
      "type": "SCALAR"
    },
    {
      "bufferView": 1,
      "componentType": 5126,
      "count": 939,
      "max": [
        0.013942065680950133,
        0.011232221793501085,
        0.004999999873689377
      ],
      "min": [
        -0.013942065680950133,
        -0.011232221793501085,
        -0.004999999873689377
      ],
      "type": "VEC3"
    },
    {
      "bufferView": 2,
      "componentType": 5126,
      "count": 939,
      "max": [
        0.9999978360212204,
        0.999999309223119,
        1.0
      ],
      "min": [
        -0.9999991885993621,
        -0.9999905858196018,
        -1.0
      ],
      "type": "VEC3"
    },
    {
      "bufferView": 3,
      "componentType": 5126,
      "count": 939,
      "max": [
        1.0,
        0.8940719282478415
      ],
      "min": [
        0.0,
        0.0
      ],
      "type": "VEC2"
    }
  ],
  "asset": {
    "generator": "Adobe Illustrator",
    "version": "2.0"
  },
  "bufferViews": [
    {
      "buffer": 0,
      "byteLength": 13272,
      "target": 34963
    },
    {
      "buffer": 0,
      "byteLength": 11268,
      "byteOffset": 13272,
      "target": 34962
    },
    {
      "buffer": 0,
      "byteLength": 11268,
      "byteOffset": 24540,
      "target": 34962
    },
    {
      "buffer": 0,
      "byteLength": 7512,
      "byteOffset": 35808,
      "target": 34962
    }
  ],
  "buffers": [
    {
      "byteLength": 43320,
      "uri": "data:application/octet-stream;base64,"
    }
  ],
  "materials": [
    {
      "doubleSided": true,
      "pbrMetallicRoughness": {
        "baseColorFactor": [
          0.9999999403953552,
          0.9999999403953552,
          0.9999999403953552,
          1.0
        ],
        "metallicFactor": 0.0,
        "roughnessFactor": 0.4000000059604645
      }
    }
  ],
  "meshes": [
    {
      "primitives": [
        {
          "attributes": {
            "NORMAL": 2,
            "POSITION": 1,
            "TEXCOORD_0": 3
          },
          "indices": 0,
          "material": 0,
          "mode": 4
        }
      ]
    }
  ],
  "nodes": [
    {
      "mesh": 0
    }
  ],
  "scenes": [
    {
      "nodes": [
        0
      ]
    }
  ]
}
