{
  "accessors": [
    {
      "bufferView": 0,
      "componentType": 5125,
      "count": 4614,
      "type": "SCALAR"
    },
    {
      "bufferView": 1,
      "componentType": 5126,
      "count": 1297,
      "max": [
        0.04931562377714693,
        0.00424799191618315,
        0.009999999747378452
      ],
      "min": [
        -0.04931562377714689,
        -0.036667436694598946,
        -0.009999999747379052
      ],
      "type": "VEC3"
    },
    {
      "bufferView": 2,
      "componentType": 5126,
      "count": 1297,
      "max": [
        0.9475004116557385,
        0.9999986983127921,
        1.0
      ],
      "min": [
        -0.951522453834036,
        -0.999999999940223,
        -1.0
      ],
      "type": "VEC3"
    },
    {
      "bufferView": 3,
      "componentType": 5126,
      "count": 1297,
      "max": [
        1.0,
        0.9330070359291843
      ],
      "min": [
        0.0,
        0.0
      ],
      "type": "VEC2"
    },
    {
      "bufferView": 4,
      "componentType": 5125,
      "count": 4596,
      "type": "SCALAR"
    },
    {
      "bufferView": 5,
      "componentType": 5126,
      "count": 1286,
      "max": [
        0.023511222515028907,
        0.03666743669459899,
        0.009999999747379052
      ],
      "min": [
        0.01017787982402285,
        0.015080143213172068,
        -0.009999999747379052
      ],
      "type": "VEC3"
    },
    {
      "bufferView": 6,
      "componentType": 5126,
      "count": 1286,
      "max": [
        0.9999999999999226,
        0.999999999999951,
        1.0
      ],
      "min": [
        -0.9999999999999343,
        -0.999999999999913,
        -1.0
      ],
      "type": "VEC3"
    },
    {
      "bufferView": 7,
      "componentType": 5126,
      "count": 1286,
      "max": [
        1.0,
        0.8546650595011964
      ],
      "min": [
        0.0,
        0.0
      ],
      "type": "VEC2"
    },
    {
      "bufferView": 8,
      "componentType": 5125,
      "count": 4596,
      "type": "SCALAR"
    },
    {
      "bufferView": 9,
      "componentType": 5126,
      "count": 1286,
      "max": [
        -0.007599889786612801,
        0.03666743576782021,
        0.009999997887007022
      ],
      "min": [
        -0.02093323123736711,
        0.015080144294417813,
        -0.009999999747379052
      ],
      "type": "VEC3"
    },
    {
      "bufferView": 10,
      "componentType": 5126,
      "count": 1286,
      "max": [
        0.9999999999997036,
        0.9999999999997626,
        1.0
      ],
      "min": [
        -0.999999999999727,
        -0.999999999999675,
        -1.0
      ],
      "type": "VEC3"
    },
    {
      "bufferView": 11,
      "componentType": 5126,
      "count": 1286,
      "max": [
        1.0,
        0.8546650595011964
      ],
      "min": [
        0.0,
        0.0
      ],
      "type": "VEC2"
    }
  ],
  "asset": {
    "generator": "Adobe Illustrator",
    "version": "2.0"
  },
  "bufferViews": [
    {
      "buffer": 0,
      "byteLength": 18456,
      "target": 34963
    },
    {
      "buffer": 0,
      "byteLength": 15564,
      "byteOffset": 18456,
      "target": 34962
    },
    {
      "buffer": 0,
      "byteLength": 15564,
      "byteOffset": 34020,
      "target": 34962
    },
    {
      "buffer": 0,
      "byteLength": 10376,
      "byteOffset": 49584,
      "target": 34962
    },
    {
      "buffer": 0,
      "byteLength": 18384,
      "byteOffset": 59960,
      "target": 34963
    },
    {
      "buffer": 0,
      "byteLength": 15432,
      "byteOffset": 78344,
      "target": 34962
    },
    {
      "buffer": 0,
      "byteLength": 15432,
      "byteOffset": 93776,
      "target": 34962
    },
    {
      "buffer": 0,
      "byteLength": 10288,
      "byteOffset": 109208,
      "target": 34962
    },
    {
      "buffer": 0,
      "byteLength": 18384,
      "byteOffset": 119496,
      "target": 34963
    },
    {
      "buffer": 0,
      "byteLength": 15432,
      "byteOffset": 137880,
      "target": 34962
    },
    {
      "buffer": 0,
      "byteLength": 15432,
      "byteOffset": 153312,
      "target": 34962
    },
    {
      "buffer": 0,
      "byteLength": 10288,
      "byteOffset": 168744,
      "target": 34962
    }
  ],
  "buffers": [
    {
      "byteLength": 179032,
      "uri": "data:application/octet-stream;base64,"
    }
  ],
  "materials": [
    {
      "doubleSided": true,
      "pbrMetallicRoughness": {
        "baseColorFactor": [
          0.3515625,
          0.9999999403953552,
          0.33203125,
          1.0
        ],
        "metallicFactor": 0.0,
        "roughnessFactor": 0.4000000059604645
      }
    },
    {
      "doubleSided": true,
      "pbrMetallicRoughness": {
        "baseColorFactor": [
          0.3515625,
          0.9999999403953552,
          0.33203125,
          1.0
        ],
        "metallicFactor": 0.0,
        "roughnessFactor": 0.4000000059604645
      }
    },
    {
      "doubleSided": true,
      "pbrMetallicRoughness": {
        "baseColorFactor": [
          0.3515625,
          0.9999999403953552,
          0.33203125,
          1.0
        ],
        "metallicFactor": 0.0,
        "roughnessFactor": 0.4000000059604645
      }
    }
  ],
  "meshes": [
    {
      "primitives": [
        {
          "attributes": {
            "NORMAL": 2,
            "POSITION": 1,
            "TEXCOORD_0": 3
          },
          "indices": 0,
          "material": 0,
          "mode": 4
        }
      ]
    },
    {
      "primitives": [
        {
          "attributes": {
            "NORMAL": 6,
            "POSITION": 5,
            "TEXCOORD_0": 7
          },
          "indices": 4,
          "material": 1,
          "mode": 4
        }
      ]
    },
    {
      "primitives": [
        {
          "attributes": {
            "NORMAL": 10,
            "POSITION": 9,
            "TEXCOORD_0": 11
          },
          "indices": 8,
          "material": 2,
          "mode": 4
        }
      ]
    }
  ],
  "nodes": [
    {
      "mesh": 0
    },
    {
      "mesh": 1
    },
    {
      "mesh": 2
    }
  ],
  "scenes": [
    {
      "nodes": [
        0,
        1,
        2
      ]
    }
  ]
}
